<svg width="64" height="64" viewBox="0 0 64 64" fill="none" xmlns="http://www.w3.org/2000/svg">
<circle cx="32" cy="32" r="30" fill="url(#paint0_linear_2342_46)"/>
<path d="M32 2C15.432 2 2 15.431 2 32C2 48.569 15.432 62 32 62C48.568 62 62 48.568 62 32C62 15.431 48.568 2 32 2ZM40.953 44.678C38.904 46.43 36.01 47.305 32.269 47.305C28.449 47.305 25.443 46.442 23.255 44.717C21.066 42.99 19.972 40.619 19.972 37.6H25.759C25.947 38.926 26.316 39.916 26.864 40.573C27.87 41.768 29.591 42.364 32.03 42.364C33.491 42.364 34.676 42.208 35.587 41.891C37.317 41.287 38.181 40.166 38.181 38.526C38.181 37.569 37.757 36.827 36.911 36.301C36.063 35.789 34.72 35.336 32.882 34.944L29.741 34.255C26.653 33.571 24.532 32.831 23.378 32.031C21.421 30.692 20.444 28.599 20.444 25.751C20.444 23.152 21.401 20.994 23.313 19.275C25.225 17.555 28.036 16.696 31.743 16.696C34.839 16.696 37.477 17.506 39.665 19.127C41.849 20.748 42.995 23.101 43.103 26.185H37.275C37.168 24.44 36.388 23.2 34.935 22.464C33.966 21.979 32.761 21.735 31.322 21.735C29.72 21.735 28.443 22.05 27.488 22.68C26.533 23.31 26.054 24.189 26.054 25.318C26.054 26.355 26.525 27.129 27.468 27.64C28.072 27.982 29.357 28.382 31.323 28.841L36.415 30.042C38.645 30.566 40.319 31.269 41.433 32.147C43.162 33.512 44.027 35.488 44.027 38.072C44.027 40.723 43.004 42.926 40.953 44.678Z" fill="black"/>
<defs>
<linearGradient id="paint0_linear_2342_46" x1="32" y1="2" x2="32" y2="62" gradientUnits="userSpaceOnUse">
<stop stop-color="white"/>
<stop offset="1" stop-color="#999999" stop-opacity="0.5"/>
</linearGradient>
</defs>
</svg>
