<svg width="256" height="288" viewBox="0 0 256 288" fill="none" xmlns="http://www.w3.org/2000/svg">
<path d="M255.987 84.59C255.985 79.753 254.95 75.478 252.857 71.809C250.803 68.201 247.724 65.177 243.596 62.786C209.516 43.135 175.401 23.544 141.332 3.87301C132.147 -1.42999 123.242 -1.23699 114.124 4.14301C100.559 12.143 32.644 51.053 12.405 62.775C4.071 67.6 0.015 74.984 0.013 84.58C0 124.101 0.013 163.62 0 203.141C0 207.871 0.993 212.064 2.993 215.678C5.049 219.395 8.17 222.502 12.394 224.947C32.634 236.669 100.558 275.577 114.12 283.578C123.241 288.96 132.147 289.153 141.335 283.848C175.405 264.176 209.521 244.586 243.607 224.935C247.831 222.491 250.952 219.382 253.008 215.668C255.005 212.054 256 207.862 256 203.129C256 203.129 256 124.111 255.987 84.59Z" fill="#649AD2"/>
</svg>
